<?xml version="1.0" standalone="no"?><!DOCTYPE svg PUBLIC "-//W3C//DTD SVG 1.1//EN" "http://www.w3.org/Graphics/SVG/1.1/DTD/svg11.dtd"><svg t="1741761391233" class="icon" viewBox="0 0 1024 1024" version="1.1" xmlns="http://www.w3.org/2000/svg" p-id="5584" xmlns:xlink="http://www.w3.org/1999/xlink" width="32" height="32"><path d="M512 512m-505.58396 0a505.58396 505.58396 0 1 0 1011.16792 0 505.58396 505.58396 0 1 0-1011.16792 0Z" fill="#92CF34" p-id="5585"></path><path d="M516.13193 520.828471m-452.972431 0a452.972431 452.972431 0 1 0 905.944862 0 452.972431 452.972431 0 1 0-905.944862 0Z" fill="#FAFFBE" p-id="5586"></path><path d="M601.182957 359.93985m6.41604 0l0 0q6.41604 0 6.416041 6.41604l0 0q0 6.41604-6.416041 6.41604l0 0q-6.41604 0-6.41604-6.41604l0 0q0-6.41604 6.41604-6.41604Z" fill="#FBF500" p-id="5587"></path><path d="M631.97995 318.877193m6.41604 0l12.83208 0q6.41604 0 6.41604 6.41604l0 15.398496q0 6.41604-6.41604 6.41604l-12.83208 0q-6.41604 0-6.41604-6.41604l0-15.398496q0-6.41604 6.41604-6.41604Z" fill="#FFFFFF" p-id="5588"></path><path d="M309.945868 576.28732m1.109722-6.319342l0 0q1.109722-6.319342 7.429064-5.20962l0 0q6.319342 1.109722 5.209621 7.429064l0 0q-1.109722 6.319342-7.429065 5.20962l0 0q-6.319342-1.109722-5.20962-7.429064Z" fill="#FBF500" p-id="5589"></path><path d="M274.838763 538.865588m1.109722-6.319343l2.219444-12.638684q1.109722-6.319342 7.429065-5.20962l15.166421 2.663333q6.319342 1.109722 5.20962 7.429065l-2.219444 12.638684q-1.109722 6.319342-7.429064 5.20962l-15.166422-2.663333q-6.319342-1.109722-5.20962-7.429065Z" fill="#FFFFFF" p-id="5590"></path><path d="M522.094999 696.957688m2.674946-5.831829l1.99016-4.338881q2.674946-5.831829 8.506776-3.156883l4.968718 2.279054q5.831829 2.674946 3.156883 8.506776l-1.99016 4.338881q-2.674946 5.831829-8.506776 3.156883l-4.968718-2.279054q-5.831829-2.674946-3.156883-8.506776Z" fill="#FFFFFF" p-id="5591"></path><path d="M473.401103 561.762807L202.977845 714.336241c-4.029273 2.28411-6.621353 6.570025-6.570025 11.215238 0.128321 13.371028 4.106266 44.681303 43.603408 82.895238 54.10005 52.329223 85.538647 66.367519 102.502657 71.68 16.091429 5.030175 29.308471 9.033784 40.446717 0 25.099549-20.300351 112.126717-308.200902 112.126716-308.200902-1.180551-8.366516-5.517794-12.626767-12.395789-12.652432-3.182356 0-6.236391 0.769925-9.290426 2.489424zM508.766316 580.805614L431.671178 887.030376c-1.154887 4.568221 0.205313 9.547068 3.721303 12.909073 10.060351 9.675388 36.186466 29.642105 92.544963 29.026165 77.146466-0.821253 109.816942-13.242707 125.754386-21.609223 15.11619-7.930226 27.409323-14.525915 28.538546-29.154486 2.566416-32.901454-150.571629-305.634486-150.571629-305.634486-7.083308-5.235489-13.294035-5.235489-18.170226-0.282306-2.258446 2.28411-3.82396 5.05584-4.696541 8.520501zM477.481704 473.888722L305.865464 202.438897c-2.566416-4.054937-7.03198-6.441704-11.677193-6.082406-13.371028 1.052231-44.373333 7.288622-79.789875 51.046015-48.505263 59.90015-60.310777 93.622857-64.417043 111.664762-3.875288 17.117995-6.954987 31.156291 2.848722 42.166216 22.071178 24.791579 316.002807 95.958296 316.002807 95.958295 8.26386-1.796491 12.241805-6.621353 11.77985-13.781654-0.205313-3.310677-1.206216-6.441704-3.156692-9.521403zM459.799098 514.951378l-308.226567-68.6003c-4.593885-1.026566-9.547068 0.487619-12.806416 4.080601-9.393083 10.316992-28.615539 36.982055-26.459749 93.314887 2.951378 77.095138 16.271078 109.406316 25.073885 125.087118 8.366516 14.885213 15.29584 26.998697 29.950075 27.717293 32.978446 1.66817 301.348571-158.96381 301.348571-158.963809 5.030175-7.211629 4.850526-13.44802-0.230977-18.170226-2.335439-2.181454-5.158496-3.695639-8.648822-4.465564zM564.560201 504.377744l274.786165-166.201102c4.106266-2.489424 9.162105-2.643409 13.165714-0.230978 11.497544 6.903659 36.443108 26.357093 48.582256 81.30406 16.630376 75.247318 12.139148 110.689524 7.750576 128.680101-4.157594 17.066667-7.699248 30.976642-21.378245 36.443107-30.822657 12.318797-325.601203-55.306266-325.601203-55.306265-6.595689-5.312481-7.981554-11.369223-4.362908-17.57995 1.66817-2.874386 3.952281-5.235489 7.057645-7.108973zM567.6399 548.314787l305.737143 78.968622c4.568221 1.180551 8.289524 4.773534 9.547067 9.444411 3.669975 13.473684 8.70015 45.964511-18.837493 95.137042-37.674987 67.342757-64.211729 90.055539-79.199599 100.038897-14.217945 9.470075-25.895138 17.092331-39.266166 11.086918-30.129724-13.499348-196.202506-278.533133-196.202506-278.533133-1.206216-8.725815 1.770827-14.192281 8.469173-16.091429 3.079699-0.872581 6.262055-0.949574 9.726717-0.051328zM490.390777 462.827469L338.895238 179.649123c-2.258446-4.234586-2.155789-9.290426 0.461955-13.14005 7.493935-11.112581 28.230576-35.005915 83.76782-44.245013 76.017243-12.626767 111.177143-6.287719 128.911077-0.949574 16.810025 5.05584 30.514687 9.31609 35.262557 23.277394C597.974937 176.004812 514.90005 466.831078 514.90005 466.831078c-5.646115 6.313383-11.77985 7.391278-17.785263 3.438997-2.771729-1.822155-5.004511-4.208922-6.72401-7.442606zM536.996892 460.723008l94.059148-301.451229a13.468551 13.468551 0 0 1 9.906366-9.085112c13.627669-2.977043 46.32381-6.390376 94.084812 23.534035 65.392281 40.96 86.744862 68.600301 95.98396 84.075789 8.751479 14.654236 15.783459 26.690727 9.136441 39.779449-14.98787 29.411128-287.95188 182.112882-287.95188 182.112882-8.777143 0.769925-14.089624-2.489424-15.655137-9.239098-0.718596-3.131028-0.641604-6.313383 0.43629-9.726716z" fill="#9DD012" p-id="5592"></path><path d="M345.747569 791.405714m-30.796993 0a30.796992 30.796992 0 1 0 61.593985 0 30.796992 30.796992 0 1 0-61.593985 0Z" fill="#FAFFBE" p-id="5593"></path><path d="M343.181153 701.581153m-20.531328 0a20.531328 20.531328 0 1 0 41.062656 0 20.531328 20.531328 0 1 0-41.062656 0Z" fill="#FAFFBE" p-id="5594"></path><path d="M432.569424 650.458145m-18.221554 0a18.221554 18.221554 0 1 0 36.443107 0 18.221554 18.221554 0 1 0-36.443107 0Z" fill="#FAFFBE" p-id="5595"></path><path d="M399.642306 729.811729m-12.83208 0a12.83208 12.83208 0 1 0 25.66416 0 12.83208 12.83208 0 1 0-25.66416 0Z" fill="#FAFFBE" p-id="5596"></path><path d="M550.624561 853.307669m-30.796992 0a30.796992 30.796992 0 1 0 61.593985 0 30.796992 30.796992 0 1 0-61.593985 0Z" fill="#FAFFBE" p-id="5597"></path><path d="M590.40401 772.722206m-20.531328 0a20.531328 20.531328 0 1 0 41.062656 0 20.531328 20.531328 0 1 0-41.062656 0Z" fill="#FAFFBE" p-id="5598"></path><path d="M524.626767 694.549173m-17.964912 0a17.964912 17.964912 0 1 0 35.929824 0 17.964912 17.964912 0 1 0-35.929824 0Z" fill="#FAFFBE" p-id="5599"></path><path d="M515.669975 769.488521m-12.83208 0a12.83208 12.83208 0 1 0 25.66416 0 12.83208 12.83208 0 1 0-25.66416 0Z" fill="#FAFFBE" p-id="5600"></path><path d="M791.251729 725.705464m-30.796992 0a30.796992 30.796992 0 1 0 61.593985 0 30.796992 30.796992 0 1 0-61.593985 0Z" fill="#FAFFBE" p-id="5601"></path><path d="M745.364211 648.456341m-20.531329 0a20.531328 20.531328 0 1 0 41.062657 0 20.531328 20.531328 0 1 0-41.062657 0Z" fill="#FAFFBE" p-id="5602"></path><path d="M643.965113 661.006115m-17.964912 0a17.964912 17.964912 0 1 0 35.929824 0 17.964912 17.964912 0 1 0-35.929824 0Z" fill="#FAFFBE" p-id="5603"></path><path d="M701.914787 709.357393m-12.83208 0a12.83208 12.83208 0 1 0 25.66416 0 12.83208 12.83208 0 1 0-25.66416 0Z" fill="#FAFFBE" p-id="5604"></path><path d="M849.689023 479.61183m-30.796993 0a30.796992 30.796992 0 1 0 61.593985 0 30.796992 30.796992 0 1 0-61.593985 0Z" fill="#FAFFBE" p-id="5605"></path><path d="M768.282306 449.32812m-20.531329 0a20.531328 20.531328 0 1 0 41.062657 0 20.531328 20.531328 0 1 0-41.062657 0Z" fill="#FAFFBE" p-id="5606"></path><path d="M690.109273 515.105363m-17.964912 0a17.964912 17.964912 0 1 0 35.929824 0 17.964912 17.964912 0 1 0-35.929824 0Z" fill="#FAFFBE" p-id="5607"></path><path d="M765.048622 524.08782m-12.832081 0a12.83208 12.83208 0 1 0 25.664161 0 12.83208 12.83208 0 1 0-25.664161 0Z" fill="#FAFFBE" p-id="5608"></path><path d="M723.626667 266.445313m-30.796993 0a30.796992 30.796992 0 1 0 61.593985 0 30.796992 30.796992 0 1 0-61.593985 0Z" fill="#FAFFBE" p-id="5609"></path><path d="M638.344662 294.778546m-20.531329 0a20.531328 20.531328 0 1 0 41.062657 0 20.531328 20.531328 0 1 0-41.062657 0Z" fill="#FAFFBE" p-id="5610"></path><path d="M628.951579 396.511278m-17.964912 0a17.964912 17.964912 0 1 0 35.929824 0 17.964912 17.964912 0 1 0-35.929824 0Z" fill="#FAFFBE" p-id="5611"></path><path d="M688.595088 350.238797m-12.83208 0a12.83208 12.83208 0 1 0 25.66416 0 12.83208 12.83208 0 1 0-25.66416 0Z" fill="#FAFFBE" p-id="5612"></path><path d="M188.528922 578.726817m-30.796992 0a30.796992 30.796992 0 1 0 61.593985 0 30.796992 30.796992 0 1 0-61.593985 0Z" fill="#FAFFBE" p-id="5613"></path><path d="M258.207118 522.009023m-20.531329 0a20.531328 20.531328 0 1 0 41.062657 0 20.531328 20.531328 0 1 0-41.062657 0Z" fill="#FAFFBE" p-id="5614"></path><path d="M349.08391 568.717794m-17.964913 0a17.964912 17.964912 0 1 0 35.929825 0 17.964912 17.964912 0 1 0-35.929825 0Z" fill="#FAFFBE" p-id="5615"></path><path d="M278.01985 594.150977m-12.832081 0a12.83208 12.83208 0 1 0 25.664161 0 12.83208 12.83208 0 1 0-25.664161 0Z" fill="#FAFFBE" p-id="5616"></path><path d="M245.939649 345.773233m-30.796992 0a30.796992 30.796992 0 1 0 61.593985 0 30.796992 30.796992 0 1 0-61.593985 0Z" fill="#FAFFBE" p-id="5617"></path><path d="M335.610226 339.921805m-20.531329 0a20.531328 20.531328 0 1 0 41.062657 0 20.531328 20.531328 0 1 0-41.062657 0Z" fill="#FAFFBE" p-id="5618"></path><path d="M382.601303 430.644612m-17.964912 0a17.964912 17.964912 0 1 0 35.929825 0 17.964912 17.964912 0 1 0-35.929825 0Z" fill="#FAFFBE" p-id="5619"></path><path d="M309.946065 410.190276m-12.83208 0a12.83208 12.83208 0 1 0 25.66416 0 12.83208 12.83208 0 1 0-25.66416 0Z" fill="#FAFFBE" p-id="5620"></path><path d="M471.861253 199.821153m-30.796992 0a30.796992 30.796992 0 1 0 61.593985 0 30.796992 30.796992 0 1 0-61.593985 0Z" fill="#FAFFBE" p-id="5621"></path><path d="M529.169323 269.037393m-20.531328 0a20.531328 20.531328 0 1 0 41.062657 0 20.531328 20.531328 0 1 0-41.062657 0Z" fill="#FAFFBE" p-id="5622"></path><path d="M483.230476 360.299148m-17.964912 0a17.964912 17.964912 0 1 0 35.929824 0 17.964912 17.964912 0 1 0-35.929824 0Z" fill="#FAFFBE" p-id="5623"></path><path d="M457.181353 289.440401m-12.83208 0a12.83208 12.83208 0 1 0 25.664161 0 12.83208 12.83208 0 1 0-25.664161 0Z" fill="#FAFFBE" p-id="5624"></path></svg>